# xmcd CD database file
#
# Track frame offsets:
#	150
#	5388
#	20877
#	34814
#	50201
#	67047
#	89470
#	107332
#	147624
#	163786
#	179166
#
# Disc length: 2757 seconds
#
# Revision: 1
# Processed by: cddbd v1.5.1PL2 Copyright (c) Steve Scherf et al.
# Submitted via: CDex 1.51
#
DISCID=a30ac30b
DTITLE=Big and Rich - comin to your city
DYEAR=2005
DGENRE=Country
TTITLE0=imported - Title_01_2
TTITLE1=imported - Title_01_3
TTITLE2=imported - Title_01_4
TTITLE3=imported - Title_01_5
TTITLE4=imported - Title_01_6
TTITLE5=imported - Title_01_7
TTITLE6=imported - Title_01_8
TTITLE7=imported - Title_01_9
TTITLE8=imported - Title_01_10
TTITLE9=imported - Title_01_11
TTITLE10=imported - Title_01_12
EXTD=YEAR: 2005
EXTT0=
EXTT1=
EXTT2=
EXTT3=
EXTT4=
EXTT5=
EXTT6=
EXTT7=
EXTT8=
EXTT9=
EXTT10=
PLAYORDER=
